<svg xmlns="http://www.w3.org/2000/svg" height="100%" width="100%">
    <defs>
        <path id="mem" d="M17,17H7V7H17M21,11V9H19V7C19,5.89 18.1,5 17,5H15V3H13V5H11V3H9V5H7C5.89,5 5,5.89 5,7V9H3V11H5V13H3V15H5V17A2,2 0 0,0 7,19H9V21H11V19H13V21H15V19H17A2,2 0 0,0 19,17V15H21V13H19V11M13,13H11V11H13M15,9H9V15H15V9Z" />
        <path id="car" d="M5,11L6.5,6.5H17.5L19,11M17.5,16A1.5,1.5 0 0,1 16,14.5A1.5,1.5 0 0,1 17.5,13A1.5,1.5 0 0,1 19,14.5A1.5,1.5 0 0,1 17.5,16M6.5,16A1.5,1.5 0 0,1 5,14.5A1.5,1.5 0 0,1 6.5,13A1.5,1.5 0 0,1 8,14.5A1.5,1.5 0 0,1 6.5,16M18.92,6C18.72,5.42 18.16,5 17.5,5H6.5C5.84,5 5.28,5.42 5.08,6L3,12V20A1,1 0 0,0 4,21H5A1,1 0 0,0 6,20V19H18V20A1,1 0 0,0 19,21H20A1,1 0 0,0 21,20V12L18.92,6Z" />
        <path id="pet" d="M8.35,3C9.53,2.83 10.78,4.12 11.14,5.9C11.5,7.67 10.85,9.25 9.67,9.43C8.5,9.61 7.24,8.32 6.87,6.54C6.5,4.77 7.17,3.19 8.35,3M15.5,3C16.69,3.19 17.35,4.77 17,6.54C16.62,8.32 15.37,9.61 14.19,9.43C13,9.25 12.35,7.67 12.72,5.9C13.08,4.12 14.33,2.83 15.5,3M3,7.6C4.14,7.11 5.69,8 6.5,9.55C7.26,11.13 7,12.79 5.87,13.28C4.74,13.77 3.2,12.89 2.41,11.32C1.62,9.75 1.9,8.08 3,7.6M21,7.6C22.1,8.08 22.38,9.75 21.59,11.32C20.8,12.89 19.26,13.77 18.13,13.28C17,12.79 16.74,11.13 17.5,9.55C18.31,8 19.86,7.11 21,7.6M19.33,18.38C19.37,19.32 18.65,20.36 17.79,20.75C16,21.57 13.88,19.87 11.89,19.87C9.9,19.87 7.76,21.64 6,20.75C5,20.26 4.31,18.96 4.44,17.88C4.62,16.39 6.41,15.59 7.47,14.5C8.88,13.09 9.88,10.44 11.89,10.44C13.89,10.44 14.95,13.05 16.3,14.5C17.41,15.72 19.26,16.75 19.33,18.38Z" />
        <path id="toy" d="M15.75 19.13C14.92 19.13 14.25 18.29 14.25 17.25C14.25 16.22 14.92 15.38 15.75 15.38C16.58 15.38 17.25 16.22 17.25 17.25C17.25 18.29 16.58 19.13 15.75 19.13M12 11.25C10.76 11.25 9.75 10.41 9.75 9.38C9.75 8.34 10.76 7.5 12 7.5C13.24 7.5 14.25 8.34 14.25 9.38C14.25 10.41 13.24 11.25 12 11.25M8.25 19.13C7.42 19.13 6.75 18.29 6.75 17.25C6.75 16.22 7.42 15.38 8.25 15.38C9.08 15.38 9.75 16.22 9.75 17.25C9.75 18.29 9.08 19.13 8.25 19.13M12 8.25C12.41 8.25 12.75 8.59 12.75 9C12.75 9.41 12.41 9.75 12 9.75C11.59 9.75 11.25 9.41 11.25 9C11.25 8.59 11.59 8.25 12 8.25M18.75 12C18.43 12 18.12 12.07 17.84 12.2C17.36 11.59 16.71 11.07 15.93 10.67C16.5 9.87 16.84 8.9 16.84 7.85C16.84 7.83 16.84 7.81 16.84 7.79C17.93 7.56 18.75 6.59 18.75 5.42C18.75 4.09 17.66 3 16.33 3C15.64 3 15 3.29 14.58 3.75C13.83 3.28 12.95 3 12 3C11.05 3 10.16 3.28 9.42 3.75C9 3.29 8.36 3 7.67 3C6.34 3 5.25 4.09 5.25 5.42C5.25 6.58 6.07 7.55 7.15 7.79C7.15 7.81 7.15 7.83 7.15 7.85C7.15 8.9 7.5 9.88 8.06 10.67C7.29 11.07 6.64 11.59 6.16 12.2C5.88 12.07 5.57 12 5.25 12C4 12 3 13 3 14.25C3 15.5 4 16.5 5.25 16.5C5.27 16.5 5.29 16.5 5.31 16.5C5.27 16.74 5.25 17 5.25 17.25C5.25 19.32 6.59 21 8.25 21C9.26 21 10.15 20.37 10.7 19.41C11.12 19.47 11.55 19.5 12 19.5C12.45 19.5 12.88 19.47 13.3 19.41C13.85 20.37 14.74 21 15.75 21C17.41 21 18.75 19.32 18.75 17.25C18.75 17 18.73 16.74 18.69 16.5C18.71 16.5 18.73 16.5 18.75 16.5C20 16.5 21 15.5 21 14.25C21 13 20 12 18.75 12" />
        <path id="pc" d="M4,6H20V16H4M20,18A2,2 0 0,0 22,16V6C22,4.89 21.1,4 20,4H4C2.89,4 2,4.89 2,6V16A2,2 0 0,0 4,18H0V20H24V18H20Z" />
        <path id="sofa" d="M12.5 7C12.5 5.89 13.39 5 14.5 5H18C19.1 5 20 5.9 20 7V9.16C18.84 9.57 18 10.67 18 11.97V14H12.5V7M6 11.96V14H11.5V7C11.5 5.89 10.61 5 9.5 5H6C4.9 5 4 5.9 4 7V9.15C5.16 9.56 6 10.67 6 11.96M20.66 10.03C19.68 10.19 19 11.12 19 12.12V15H5V12C5 10.9 4.11 10 3 10S1 10.9 1 12V17C1 18.1 1.9 19 3 19V21H5V19H19V21H21V19C22.1 19 23 18.1 23 17V12C23 10.79 21.91 9.82 20.66 10.03Z" />
        <path id="hat" d="M19.11,11.92C19.13,11.71 19.14,11.5 19.14,11.29C19.14,7.86 17.71,4.14 16.28,4.14C14.85,4.14 13.42,5.57 12,5.57C10.57,5.57 9.14,4.14 7.71,4.14C6.28,4.14 4.86,7.79 4.86,11.29C4.86,11.5 4.86,11.71 4.88,11.92C7.22,12.45 9.6,12.72 12,12.71C14.45,12.71 16.83,12.44 19.11,11.92M3.45,18.18C9,19.85 14.96,19.86 20.54,18.18C20.96,18.04 21.33,17.77 21.59,17.41C21.85,17.05 22,16.61 22,16.17C22,15.72 21.86,15.29 21.61,14.92C21.35,14.56 21,14.29 20.56,14.14C17.86,15 15,15.45 12,15.45C9,15.45 6.13,15 3.43,14.14C3,14.29 2.65,14.57 2.39,14.93C2.14,15.29 2,15.72 2,16.17C2,17.11 2.61,17.9 3.45,18.18V18.18Z" />
        <path id="home" d="M0,21V10L7.5,5L15,10V21H10V14H5V21H0M24,2V21H17V8.93L16,8.27V6H14V6.93L10,4.27V2H24M21,14H19V16H21V14M21,10H19V12H21V10M21,6H19V8H21V6Z" />

        <pattern id="pattern" x="0" y="0" width="196" height="196" patternUnits="userSpaceOnUse" patternTransform="scale(2)">
            <use href="#mem" x="0" y="0" fill="#000" />
            <use href="#pc" x="48" y="48" fill="#000" />
            <use href="#pet" x="0" y="96" fill="#000" />
            <use href="#toy" x="48" y="144" fill="#000" />
            <use href="#sofa" x="96" y="0" fill="#000" />
            <use href="#home" x="96" y="96" fill="#000" />
            <use href="#hat" x="144" y="48" fill="#000" />
            <use href="#car" x="144" y="144" fill="#000" />
        </pattern>
    </defs>

    <rect opacity=".033" width="100%" height="100%" fill="url(#pattern)" />
</svg>