<svg xmlns="http://www.w3.org/2000/svg" height="100%" width="100%">
    <defs>
        <pattern id="pattern" x="0" y="0" width="70" height="8" patternUnits="userSpaceOnUse" patternTransform="scale(6) rotate(130)">
            <path d="M-.02 22c8.373 0 11.938-4.695 16.32-9.662C20.785 7.258 25.728 2 35 2c9.272 0 14.215 5.258 18.7 10.338C58.082 17.305 61.647 22 70.02 22M-.02 14.002C8.353 14 11.918 9.306 16.3 4.339 20.785-.742 25.728-6 35-6 44.272-6 49.215-.742 53.7 4.339c4.382 4.967 7.947 9.661 16.32 9.664M70 6.004c-8.373-.001-11.918-4.698-16.3-9.665C49.215-8.742 44.272-14 35-14c-9.272 0-14.215 5.258-18.7 10.339C11.918 1.306 8.353 6-.02 6.002" stroke-width=".05" stroke="#000" fill="none" />
        </pattern>
    </defs>
    <rect opacity=".33" width="100%" height="100%" fill="url(#pattern)" />
</svg>